<?xml version="1.0" encoding="UTF-8" standalone="no"?>
<!-- Created with Inkscape (http://www.inkscape.org/) -->

<svg
   xmlns:dc="http://purl.org/dc/elements/1.1/"
   xmlns:cc="http://creativecommons.org/ns#"
   xmlns:rdf="http://www.w3.org/1999/02/22-rdf-syntax-ns#"
   xmlns:svg="http://www.w3.org/2000/svg"
   xmlns="http://www.w3.org/2000/svg"
   xmlns:sodipodi="http://sodipodi.sourceforge.net/DTD/sodipodi-0.dtd"
   xmlns:inkscape="http://www.inkscape.org/namespaces/inkscape"
   version="1.1"
   width="672.69232"
   height="216.21857"
   viewBox="0 0 538.22137 172.99656"
   id="svg2"
   inkscape:version="0.48.5 r10040"
   sodipodi:docname="logo_text_only.svg">
  <sodipodi:namedview
     pagecolor="#ffffff"
     bordercolor="#666666"
     borderopacity="1"
     objecttolerance="10"
     gridtolerance="10"
     guidetolerance="10"
     inkscape:pageopacity="0"
     inkscape:pageshadow="2"
     inkscape:window-width="1536"
     inkscape:window-height="803"
     id="namedview12"
     showgrid="false"
     inkscape:zoom="0.74058584"
     inkscape:cx="209.59344"
     inkscape:cy="58.696673"
     inkscape:window-x="-8"
     inkscape:window-y="-8"
     inkscape:window-maximized="1"
     inkscape:current-layer="svg2"
     fit-margin-top="0"
     fit-margin-left="0"
     fit-margin-right="0"
     fit-margin-bottom="0" />
  <metadata
     id="metadata9">
    <rdf:RDF>
      <cc:Work
         rdf:about="">
        <dc:format>image/svg+xml</dc:format>
        <dc:type
           rdf:resource="http://purl.org/dc/dcmitype/StillImage" />
        <dc:title></dc:title>
      </cc:Work>
    </rdf:RDF>
  </metadata>
  <defs
     id="defs7" />
  <path
     d="m 482.99999,62.996556 0,51.000004 c 0.01,7.75 0.19,9.86 12,10 l 4,0 c 15.38,-0.19 20.81,-11.51 23.08,-25.000004 2.61,-15.51 -0.01,-39.09 -18.08,-44.07 -4.06,-1.12 -7.86,-1.04 -12,-0.63 -6.51,1.27 -8.88,1.67 -9,8.7 z m -3.74,-17.26 c 1.6,1.58 2.16,5.97 2.74,8.26 3,-2.73 5.33,-4.77 9,-6.62 14.54,-7.34 33.64,-3.39 41.6,11.62 9.79,18.47 6.73,49.140004 -8.69,63.820004 -3.76,3.58 -9.05,6.19 -13.91,8.06 -10.38,3.61 -16.72,2.05 -27,0 l 0,42.12 -16,-1 0,-101.000004 c -0.04,-8.95 -0.47,-16.3 -9,-21 l 0,-3 c 4.77,-1.89 16.99,-5.5 21.26,-1.26 z m -78.26,18.26 0,49.000004 c 0.02,10.1 2.94,10.88 13,11 5.46,0.06 10.12,0.36 14.99,-2.61 7.56,-4.61 10.34,-13.18 12.01,-21.390004 3.2,-15.81 0.29,-39.79 -18,-45.06 -3.93,-1.13 -7.98,-1.04 -12,-0.64 -6.92,1.35 -9.86,2.11 -10,9.7 z m -20.86,-18.09 c 3.4,-2.07 15.07,-3.2 18.12,0 1.6,1.41 2.16,5.8 2.74,8.09 15.95,-14.29 40.21,-14.76 51.02,6 11.55,22.18 4.33,59.180004 -20.02,69.570004 -12.99,5.54 -18.17,3.16 -31,1.43 l 0,41 -16,0 c 1.79,-7.36 1,-26.41 1,-35 l 0,-66.000004 c -0.11,-8.68 -0.79,-16.48 -9,-21 1.02,-1.92 1.17,-2.62 3.14,-4.09 z m -187.14,31.09 c 1.98,0 5.83,0.23 7.4,-1.02 3.73,-2.97 -0.92,-12.88 -2.87,-15.97 -5.17,-8.17 -16.77,-11.16 -24.43,-4.62 -2.79,2.38 -4.25,5.31 -5.67,8.61 -2.07,4.81 -2.99,7.78 -3.43,13 z m 22.56,40.000004 c -9.09,17.34 -43.78,23.99 -59.12,2 -13.19,-18.92 -8.56,-56.720004 10.56,-70.360004 4.59,-3.28 11.39,-5.22 17,-5.55 19.55,-1.14 31.56,11.9 31.99,30.91 0.05,2.33 0.36,6.38 -1.59,7.99 -3.32,2.75 -13.32,1.78 -17.4,1.15 l -33,0 c 0,14.06 1.85,27.780004 16,35.030004 3.85,1.96 8.68,3.17 13,2.5 12.6,-1.95 15.98,-8.21 25,-14.67 -0.18,3.87 -0.6,7.5 -2.44,11 z m 102.45,-9 c 3.41,8.05 9.6,16.25 18.99,16.9 12.08,0.85 18.31,-8.42 21.25,-18.9 5.31,-18.900004 -1.05,-57.350004 -27.25,-54.670004 -22.1,5.5 -19.87,40.41 -12.99,56.670004 z m 22.99,-64.740004 c 26.99,1.37 35.28,22.01 35,45.74 -0.26,21.430004 -15.25,40.850004 -37,43.710004 -27.15,3.58 -41.01,-18.34 -41.96,-42.710004 -0.66,-16.94 8.34,-35.38 23.96,-42.87 4.97,-2.38 8.71,-2.84 14,-3.87 2.35,-0.12 3.57,-0.31 6,0 z m -319.719993,-26.53 c 1.76,1.73 2.49,5.88 3.09,8.27 l 4.65,17 14.98,48 c 2.45,7.34 4.71,16.700004 9,23.000004 l 17.22,-50.000004 10.78,-29 4,0 16.669993,54 c 2.26,6.8 5.48,19.100004 10.33,24.000004 1.13,-7.32 6.06,-19.500004 8.66,-27.000004 l 16.11,-47 c 1,-2.92 2.15,-6.91 1.81,-10 -0.57,-5.33 -6.9,-11.52 2.44,-12.9 l 2.98,0 c 4.87,-0.2 6.3,0.06 11,0.9 -1.01,12.32 -9.58,32.85 -14.19,45 l -26.81,73.000004 c -4.61,-0.62 -10.23,-1.36 -13.9,-4.42 -5.069993,-4.22 -6.439993,-11.57 -8.429993,-17.58 l -13.67,-40.000004 -22,62.000004 c -4.08,-0.55 -9.56,-1.31 -12.96,-3.7 -6.59,-4.63 -9.25,-17.75 -11.71,-25.3 l -19.67,-61.000004 c -4.2200001,-12.2 -9.6400001,-20.68 -10.85000009,-24 -0.56,-1.56 -0.59,-2.43 -0.8099999951687,-4 C 5.4799969,14.996556 16.779997,12.316556 21.279997,16.726556 z M 261.58999,3.6465559 c 3.5,-3.71999997 14.9,-4.93 19.02,-1.8 4.31,3.28 4.38,9.3000001 4.39,14.1500001 l 0,114.000004 -17,0 c 0.63135,-32.122504 0,-58.889094 0,-91.000004 -0.82922,-10.59326 1.22088,-29.6627701 -8,-32.0000001 -1.48311,-0.30805 0.43,-2.12 1.59,-3.35 z m -35,0 c 3.4,-3.60999997 15.06,-5.07 19.02,-1.91 4.24,3.38 4.38,10.3500001 4.39,15.2600001 l 0,113.000004 -17,0 0,-91.000004 0,-13 c 0,-8.46 0.87,-14.7 -8,-19.0000001 0.47,-1.44 0.43,-2.12 1.59,-3.35 z"
     id="Selection #4"
     style="fill:#ffffff;fill-opacity:1;stroke:none"
     inkscape:connector-curvature="0" />
  <text
     x="26.807686"
     y="147.0735"
     id="text2986"
     xml:space="preserve"
     style="font-size:32.00401688px;font-style:normal;font-weight:normal;line-height:125%;letter-spacing:0px;word-spacing:0px;fill:#000000;fill-opacity:1;stroke:none;font-family:Sans"
     sodipodi:linespacing="125%"><tspan
       x="26.807686"
       y="147.0735"
       id="tspan2988"
       style="font-style:normal;font-variant:normal;font-weight:300;font-stretch:normal;font-family:Perpetua Titling MT;-inkscape-font-specification:Perpetua Titling MT Light" /></text>
</svg>
