<?xml version="1.0" encoding="UTF-8" standalone="no"?>
<!-- Created with Inkscape (http://www.inkscape.org/) -->

<svg
   xmlns:dc="http://purl.org/dc/elements/1.1/"
   xmlns:cc="http://creativecommons.org/ns#"
   xmlns:rdf="http://www.w3.org/1999/02/22-rdf-syntax-ns#"
   xmlns:svg="http://www.w3.org/2000/svg"
   xmlns="http://www.w3.org/2000/svg"
   version="1.1"
   width="330.85971"
   height="292.75589"
   viewBox="0 0 264.72098 234.2341"
   id="svg2">
  <metadata
     id="metadata9">
    <rdf:RDF>
      <cc:Work
         rdf:about="">
        <dc:format>image/svg+xml</dc:format>
        <dc:type
           rdf:resource="http://purl.org/dc/dcmitype/StillImage" />
        <dc:title></dc:title>
      </cc:Work>
    </rdf:RDF>
  </metadata>
  <defs
     id="defs7" />
  <path
     d="m 232.36011,110.64767 c -10.12005,-0.0327 -21.00984,3.19396 -28.60359,6.67584 -28.86324,13.54769 -62.74121,49.48092 -66.00828,88.68612 0.36467,0.0671 0.73368,0.13463 1.10014,0.20003 2.67977,-4.8826 9.59131,-12.88241 11.92649,-15.17691 19.54392,-21.06207 68.41783,-31.92104 89.71126,-19.30242 2.81359,-3.30026 5.61586,-6.86183 8.37605,-10.72634 5.89,-7.89 10.42123,-18.97364 9.80123,-29.00364 -0.35,-5.61 -2.15075,-9.86675 -6.00075,-13.97676 -5.01813,-5.35937 -12.4314,-7.35056 -20.30255,-7.37592 z"
     id="path3014"
     style="fill:none;stroke:#1fc1d1;stroke-width:12.00150585;stroke-miterlimit:4;stroke-opacity:1;stroke-dasharray:none" />
  <path
     d="M 68.164509,6.0095402 C 41.769279,6.5263456 28.050065,31.632376 27.75944,56.015814 c -0.15436,13.928239 1.864626,28.73614 6.000753,43.480455 35.991321,-3.016915 73.499427,29.009761 84.535607,54.506841 7.31,17.91 8.9362,28.98602 9.5762,48.00602 0.0392,1.19509 0.17449,2.47364 -0.10001,3.65046 0.3262,0.11487 0.64739,0.23748 0.97512,0.35004 8.3,-9.13 14.50213,-31.73552 17.00213,-44.00552 C 153.86573,119.13701 140.30392,53.65604 101.74372,19.011171 93.499176,12.610595 82.317025,6.8216749 70.764835,6.0345433 69.887023,5.9992308 69.015968,5.992869 68.164509,6.0095402 z"
     id="path3012"
     style="fill:none;stroke:#1fc1d1;stroke-width:12.00150585;stroke-miterlimit:4;stroke-opacity:1;stroke-dasharray:none" />
  <text
     x="-332.4386"
     y="331.08215"
     id="text2986"
     xml:space="preserve"
     style="font-size:32.00401688px;font-style:normal;font-weight:normal;line-height:125%;letter-spacing:0px;word-spacing:0px;fill:#000000;fill-opacity:1;stroke:none;font-family:Sans"><tspan
       x="-332.4386"
       y="331.08215"
       id="tspan2988"
       style="font-style:normal;font-variant:normal;font-weight:300;font-stretch:normal;font-family:Perpetua Titling MT;-inkscape-font-specification:Perpetua Titling MT Light" /></text>
  <path
     d="m 119.07282,154.75472 c 7.31001,17.91 8.94001,28.98001 9.58001,48 0.06,1.83001 0.34,3.89 -0.96001,5.41001 -1.37,1.6 -5.13999,2.05 -7.17,2.3 -5.88999,0.75 -12.06999,1.34999 -17.99999,1.28999 -23.360005,-0.26999 -53.090005,-9.48 -70.910005,-24.81 -26.2018905,-23.41475 -35.2531806,-69.34606 -13.09,-82.84 40.13977,-16.645191 87.857785,21.32693 100.549995,50.65 z"
     id="path3008"
     style="fill:none;stroke:#1fc1d1;stroke-width:12.00150585;stroke-miterlimit:4;stroke-opacity:1;stroke-dasharray:none" />
  <path
     d="m 248.58734,190.23334 c -0.33,4.86 -2.49,10.14 -5.43,14 -10.46,13.73 -32.22999,23.92 -49.46999,24 l -12,0 c -11.33,-0.14 -25.9,-5.2 -36.00001,-10.25 -3.17,-1.58 -10.38,-4.5 -9.99,-8.79 0.34,-3.69 10.13,-15.1 13.00001,-17.92 25.45724,-27.43474 100.68244,-37.57583 99.88999,-1.04 z"
     id="path3010"
     style="fill:none;stroke:#1fc1d1;stroke-width:12.00150585;stroke-miterlimit:4;stroke-opacity:1;stroke-dasharray:none" />
</svg>
