<?xml version="1.0" encoding="UTF-8" standalone="no"?>
<svg
   xmlns:sketch="http://www.bohemiancoding.com/sketch/ns"
   xmlns:dc="http://purl.org/dc/elements/1.1/"
   xmlns:cc="http://creativecommons.org/ns#"
   xmlns:rdf="http://www.w3.org/1999/02/22-rdf-syntax-ns#"
   xmlns:svg="http://www.w3.org/2000/svg"
   xmlns="http://www.w3.org/2000/svg"
   xmlns:sodipodi="http://sodipodi.sourceforge.net/DTD/sodipodi-0.dtd"
   xmlns:inkscape="http://www.inkscape.org/namespaces/inkscape"
   width="1280px"
   height="850px"
   viewBox="0 0 1280 850"
   version="1.1"
   id="svg2"
   inkscape:version="0.48.5 r10040"
   sodipodi:docname="404.svg">
  <metadata
     id="metadata111">
    <rdf:RDF>
      <cc:Work
         rdf:about="">
        <dc:format>image/svg+xml</dc:format>
        <dc:type
           rdf:resource="http://purl.org/dc/dcmitype/StillImage" />
        <dc:title>Desktop Landscape</dc:title>
      </cc:Work>
    </rdf:RDF>
  </metadata>
  <sodipodi:namedview
     pagecolor="#ffffff"
     bordercolor="#666666"
     borderopacity="1"
     objecttolerance="10"
     gridtolerance="10"
     guidetolerance="10"
     inkscape:pageopacity="0"
     inkscape:pageshadow="2"
     inkscape:window-width="1536"
     inkscape:window-height="803"
     id="namedview109"
     showgrid="false"
     inkscape:zoom="0.63197669"
     inkscape:cx="714.67463"
     inkscape:cy="453.70966"
     inkscape:window-x="-8"
     inkscape:window-y="-8"
     inkscape:window-maximized="1"
     inkscape:current-layer="svg2" />
  <!-- Generator: Sketch 3.3.3 (12081) - http://www.bohemiancoding.com/sketch -->
  <title
     id="title4">Desktop Landscape</title>
  <desc
     id="desc6">Created with Sketch.</desc>
  <defs
     id="defs8">
    <filter
       x="-50%"
       y="-50%"
       width="200%"
       height="200%"
       filterUnits="objectBoundingBox"
       id="filter-1">
      <feMorphology
         radius="4"
         in="SourceAlpha"
         operator="dilate"
         result="shadowSpreadOuter1"
         id="feMorphology11" />
      <feOffset
         dx="4"
         dy="3"
         in="shadowSpreadOuter1"
         result="shadowOffsetOuter1"
         id="feOffset13" />
      <feGaussianBlur
         stdDeviation="2.5"
         in="shadowOffsetOuter1"
         result="shadowBlurOuter1"
         id="feGaussianBlur15" />
      <feColorMatrix
         values="0 0 0 0 0   0 0 0 0 0   0 0 0 0 0  0 0 0 0.0892634737 0"
         in="shadowBlurOuter1"
         type="matrix"
         result="shadowMatrixOuter1"
         id="feColorMatrix17" />
      <feMerge
         id="feMerge19">
        <feMergeNode
           in="shadowMatrixOuter1"
           id="feMergeNode21" />
        <feMergeNode
           in="SourceGraphic"
           id="feMergeNode23" />
      </feMerge>
    </filter>
  </defs>
  <g
     id="Page-1"
     sketch:type="MSPage"
     stroke-width="1"
     stroke="none"
     fill-rule="evenodd"
     fill="none">
    <g
       id="Desktop-Landscape"
       sketch:type="MSArtboardGroup">
      <g
         id="Group"
         sketch:type="MSLayerGroup"
         transform="translate(0.000000, -22.000000)">
        <path
           d="M763.5,496.217647 C767,485.161765 763.5,473.579412 763.5,473.579412 C763.5,473.579412 747.5,476.738235 744,490.952941 C740.5,505.167647 750,514.644118 750,514.644118 C750,514.644118 760,507.273529 763.5,496.217647 Z"
           id="Line"
           sketch:type="MSShapeGroup"
           fill="#A7BA4D" />
        <rect
           id="Rectangle-71"
           sketch:type="MSShapeGroup"
           x="0"
           y="0"
           width="1280"
           height="895"
           stroke="#979797"
           fill="#C0DAF0" />
        <path
           d="M777,526.752941 C791.5,525.7 799.5,517.802941 799.5,517.802941 C799.5,517.802941 789,502.895535 776,503.061765 C763,503.227994 754.5,516.75 754.5,516.75 C754.5,516.75 762.5,527.805882 777,526.752941 Z"
           id="path30"
           sketch:type="MSShapeGroup"
           fill="#A7BA4D" />
        <path
           d="M822.500001,553.602941 C827.000001,545.179412 822.5,529.385294 822.5,529.385294 C822.5,529.385294 806.5,533.070588 803,545.705882 C799.5,558.341176 808.5,568.344118 808.5,568.344118 C808.5,568.344118 818.000001,562.026471 822.500001,553.602941 Z"
           id="path32"
           sketch:type="MSShapeGroup"
           fill="#A7BA4D" />
        <path
           d="M834,583.085294 C842.828369,582.709054 849.891092,577.771001 854.5,575.714706 C856.938856,574.626594 859.5,575.714706 859.5,575.714706 C859.5,575.714706 851,560.447059 836.5,557.814706 C822,555.182353 813.5,572.555882 813.5,572.555882 C813.5,572.555882 820.5,583.660625 834,583.085294 Z"
           id="path34"
           sketch:type="MSShapeGroup"
           fill="#A7BA4D" />
        <path
           d="M848.5,648.894118 C837,654.158823 830.5,666.267647 830.5,666.267647 C830.5,666.267647 847.071133,675.046166 857,669.952941 C865.772309,665.452998 867.928717,647.067788 869.5,646.261765 C872.849726,644.543451 860,643.629412 848.5,648.894118 Z"
           id="path36"
           sketch:type="MSShapeGroup"
           fill="#A7BA4D" />
        <path
           d="M872,663.108824 C872.833017,666.909666 879.5,674.691176 879.5,674.691176 C879.5,674.691176 886.5,666.794118 885,657.844118 C883.5,648.894118 873.5,647.314706 873.5,647.314706 C873.5,647.314706 870.833017,657.784175 872,663.108824 Z"
           id="path38"
           sketch:type="MSShapeGroup"
           fill="#A7BA4D" />
        <path
           d="M41.25,807.361765 C63.1907328,799.510344 91.7704144,797.852316 109.75,789.461765 C150.547039,770.422968 189.406234,714.572269 244.25,687.326471 C340.734396,639.394051 450.75,620.464706 450.75,620.464706 C450.75,620.464706 543.553529,664.204563 596.5,671.532353 C599.092216,671.891115 602.619623,682.465373 605,682.588235 C606.894006,682.685994 601,674.164706 603,671.532353 C603.963198,670.264614 611.883727,670.127615 618.5,667.847059 C625.621862,665.392232 631.407202,660.788144 630.5,659.423529 C628.75,656.791176 616.25,670.479412 578.25,661.002941 C540.25,651.526471 502.75,610.988235 502.75,610.988235 C502.75,610.988235 536.441099,600.584566 553.75,601.511765 C593.456707,603.638764 667.324127,634.443867 718.75,639.944116 C780.680803,646.567919 817.25,627.835294 817.25,627.835294 C817.25,627.835294 853.873085,636.114939 869.75,641.523528 C876.539752,643.836507 885.25,651 885.25,651 C885.25,651 879.402952,644.542996 872.75,641.523528 C860.069619,635.768487 827.25,624.676471 827.25,624.676471 C827.25,624.676471 832.380504,620.045502 836.75,618.885295 C842.398691,617.38543 854.05838,617.351539 861.75,616.252942 C874.207156,614.473681 884.75,609.408824 884.75,609.408824 C884.75,609.408824 899.640113,613.434594 906.75,613.620589 C926.473446,614.136555 965.25,611.514706 965.25,611.514706 C965.25,611.514706 970.665761,616.857477 974.25,618.885295 C981.832427,623.175124 1004.75,618.885295 1004.75,618.885295 C1004.75,618.885295 991.839488,616.688592 986.75,615.2 C982.839488,614.056239 977.75,610.988235 977.75,610.988235 C977.75,610.988235 991.642474,608.832959 997.75,605.723529 C1006.80914,601.11139 1023.25,587.823529 1023.25,587.823529 C1023.25,587.823529 989.740589,602.572103 973.25,604.144118 C949.240589,606.432887 902.25,601.511765 902.25,601.511765 C902.25,601.511765 938.198254,579.099053 953.75,567.291176 C962.698254,560.497092 975.75,545.705882 975.75,545.705882 C975.75,545.705882 907.143611,592.255975 877.75,597.3 C857.024667,600.856524 823.278295,601.486519 796.25,604.144118 C766.680827,607.051552 746.187515,614.42687 721.25,613.620588 C685.460295,612.463432 659.75,599.932353 659.75,599.932353 C659.75,599.932353 671.339656,595.80298 675.25,593.088235 C682.138194,588.306128 690.75,572.029412 706.25,570.45 C712.629631,569.799931 723.581769,582.625273 751.25,583.611765 C778.536864,584.584659 809.25,574.661765 809.25,574.661765 C809.25,574.661765 765.495958,580.512159 743.75,576.241176 C733.329291,574.194512 712.75,555.708824 712.75,555.708824 C712.75,555.708824 716.060127,549.358566 721.25,545.705882 C724.500974,543.417815 729.501795,544.205721 731.75,542.020588 C734.23371,539.606557 736.173517,533.652632 739.25,529.911765 C745.045757,522.864381 751.75,517.802941 751.75,517.802941 C751.75,517.802941 740.121327,522.796399 726.75,533.070588 C715.032394,542.0741 702.106612,556.044922 692.75,562.026471 C687.467103,565.403751 675.403845,567.200513 668.25,570.45 C658.296937,574.970974 653.75,580.452941 653.75,580.452941 C653.75,580.452941 644.797658,584.470049 632.25,580.452941 C614.528534,574.779449 589.784251,560.040722 574.25,555.708824 C564.283254,552.929486 544.25,549.917647 544.25,549.917647 C544.25,549.917647 545.28865,541.28143 548.75,539.914706 C561.157496,535.01557 591.824284,537.674335 608.75,533.070588 C625.298744,528.569376 628.25,516.75 628.25,516.75 C628.25,516.75 623.268615,521.278069 608.75,525.7 C597.187037,529.221729 574.040919,525.978181 553.75,531.491176 C528.740733,538.286136 507.25,553.602941 507.25,553.602941 C507.25,553.602941 489.760795,568.041415 450.75,576.241176 C414.5255,583.855281 382.64525,575.460022 356.75,583.611765 C313.532295,597.216562 216.25,645.208824 216.25,645.208824 C216.25,645.208824 226.023488,637.846572 233.25,604.144118 C237.707264,583.35667 236.708616,545.290481 241.25,519.908824 C245.256204,497.518272 254.679634,487.057314 260.25,477.791176 C277.794173,448.606969 335.25,447.255882 335.25,447.255882 C335.25,447.255882 343.469764,453.225971 347.25,454.626471 C352.469764,456.560285 362.25,457.258824 362.25,457.258824 C362.25,457.258824 353.225714,453.36012 348.75,450.414706 C346.559047,448.972866 342.25,444.097059 342.25,444.097059 L373.25,435.673529 C373.25,435.673529 357.201801,437.841368 339.25,438.305882 C324.557656,438.686056 308.645394,437.234743 298.75,438.305882 C285.069387,439.786758 266.25,447.255882 266.25,447.255882 C266.25,447.255882 272.934485,439.23905 278.75,435.673529 C299.267819,423.093952 345.25,398.820588 345.25,398.820588 C345.25,398.820588 365.883004,400.122477 376.25,398.820588 C384.049671,397.841104 399.75,391.976471 399.75,391.976471 C399.75,391.976471 381.380695,393.29647 372.25,393.029412 C369.380695,392.945489 363.75,390.923529 363.75,390.923529 C363.75,390.923529 372.724925,387.63559 376.25,385.132353 C379.891591,382.546375 383.75,374.602941 383.75,374.602941 C383.75,374.602941 347.22422,388.207004 328.75,395.661765 C319.390887,399.438376 300.25,408.297059 300.25,408.297059 C300.25,408.297059 298.271571,404.79771 300.25,398.820588 C303.610375,388.668407 312.308408,378.058318 313.25,370.391176 C314.254044,362.215503 307.75,347.226471 307.75,347.226471 C307.75,347.226471 309.468574,363.68517 307.75,370.391176 C305.826922,377.895172 297.932526,386.930159 294.25,395.661765 C290.372273,404.85621 290.75,413.561765 290.75,413.561765 C290.75,413.561765 250.187186,438.438161 236.25,467.788235 C229.174345,482.688732 226.327605,524.775074 221.75,551.497059 C218.415725,570.961045 212.25,578.873529 212.25,578.873529 C212.25,578.873529 211.604876,548.933417 198.25,525.7 C188.250327,508.303615 165.94445,498.850538 159.75,485.688235 C155.717331,477.119402 156.75,460.944118 156.75,460.944118 C156.75,460.944118 147.126132,469.857138 154.25,485.688235 C168.427369,517.194054 190.25,521.488235 198.25,559.920588 C203.605884,585.650492 192.75,610.988235 174.75,641.523529 C156.75,672.058824 153.318715,695.6727 132.25,714.702941 C104.699966,739.587411 68.25,747.344118 68.25,747.344118 C68.25,747.344118 43.8560812,749.830519 31.75,753.135294 C21.3560812,755.972675 0.75,765.770588 0.75,765.770588 L0.75,830 C0.75,830 17.9206815,815.710087 41.25,807.361765 Z"
           id="path40"
           sketch:type="MSShapeGroup"
           fill="#71502D" />
        <path
           d="M617,705.226471 C624,715.229412 637.5,718.914706 637.5,718.914706 C637.5,718.914706 641.5,701.014706 634,691.538235 C626.5,682.061765 610.5,683.114706 610.5,683.114706 C610.5,683.114706 610,695.223529 617,705.226471 Z"
           id="path42"
           sketch:type="MSShapeGroup"
           fill="#A7BA4D" />
        <path
           d="M581.5,709.438235 C579,726.811765 581.5,726.285294 581.5,726.285294 C581.5,726.285294 598,724.705882 605.5,714.176471 C613,703.647059 605.5,686.273529 605.5,686.273529 C605.5,686.273529 584,692.064706 581.5,709.438235 Z"
           id="path44"
           sketch:type="MSShapeGroup"
           fill="#A7BA4D" />
        <path
           d="M979.5,624.676471 C993.5,620.991177 999.5,626.255882 999.5,626.255882 C999.5,626.255882 1002,642.05 988.5,647.841177 C975,653.632353 960.275319,643.808928 959.5,644.155883 C958.01362,644.821038 965.5,628.361765 979.5,624.676471 Z"
           id="path46"
           sketch:type="MSShapeGroup"
           fill="#A7BA4D" />
        <path
           d="M1018,608.882353 C1027.5,606.25 1038.5,614.673529 1038.5,614.673529 C1038.5,614.673529 1031,624.636868 1021.5,625.202941 C1012,625.769014 1006.5,616.800699 1006.5,616.800699 C1006.5,616.800699 1008.5,611.514706 1018,608.882353 Z"
           id="path48"
           sketch:type="MSShapeGroup"
           fill="#A7BA4D" />
        <path
           d="M967,517.276471 C971.5,504.641176 986.5,500.955882 986.5,500.955882 C986.5,500.955882 989,519.382353 986.5,527.279412 C984,535.176471 974.5,539.914706 974.5,539.914706 C974.5,539.914706 962.5,529.911765 967,517.276471 Z"
           id="path50"
           sketch:type="MSShapeGroup"
           fill="#A7BA4D" />
        <path
           d="M978,544.126471 C978,544.126471 980.5,533.597059 991,532.017647 C1001.5,530.438235 1018.5,538.861765 1018.5,538.861765 C1018.5,538.861765 1009,552.02353 996,553.60294 C983,555.182351 980.010139,543.914459 978.5,544.126471"
           id="path52"
           sketch:type="MSShapeGroup"
           fill="#A7BA4D" />
        <path
           d="M1050.5,585.191176 C1064.5,592.561765 1064.5,610.461765 1064.5,610.461765 C1064.5,610.461765 1046.5,612.041176 1034,602.038235 C1021.5,592.035293 1027.4301,586.441809 1025.5,585.191176 C1020.53356,581.9731 1036.5,577.820588 1050.5,585.191176 Z"
           id="path54"
           sketch:type="MSShapeGroup"
           fill="#A7BA4D" />
        <path
           d="M1026,566.238235 C1029.5,560.973529 1039.5,562.026471 1039.5,562.026471 C1039.5,562.026471 1039.23143,571.523646 1035,576.241176 C1031.64255,579.984322 1024.43578,578.821256 1022.5,580.979412 C1018.12454,585.857516 1022.5,571.502941 1026,566.238235 Z"
           id="path56"
           sketch:type="MSShapeGroup"
           fill="#A7BA4D" />
        <path
           d="M116,460.944118 C128.5,470.420588 150.5,463.05 150.5,463.05 C150.5,463.05 151,448.308824 136,433.567647 C121,418.826471 103.5,418.826471 103.5,418.826471 C103.5,418.826471 103.5,451.467647 116,460.944118 Z"
           id="path58"
           sketch:type="MSShapeGroup"
           fill="#A7BA4D" />
        <path
           d="M168,426.197059 C168.42573,418.128223 161.5,397.767647 161.5,397.767647 C161.5,397.767647 143.5,408.823529 143.5,426.197059 C143.5,443.570588 158.5,454.626471 158.5,454.626471 C158.5,454.626471 167.42573,437.081165 168,426.197059 Z"
           id="path60"
           sketch:type="MSShapeGroup"
           fill="#A7BA4D" />
        <path
           d="M285,363.020588 C297,362.450641 304.5,369.338235 304.5,369.338235 C304.5,369.338235 292.442541,385.233575 282.5,386.185294 C271.624846,387.226285 262.694841,373.339905 260.5,373.55 C256.29854,373.952172 273,363.590536 285,363.020588 Z"
           id="path62"
           sketch:type="MSShapeGroup"
           fill="#A7BA4D" />
        <path
           d="M289.5,325.114706 C277,310.373529 255.5,309.320588 255.5,309.320588 C255.5,309.320588 250.5,331.958824 265,346.173529 C279.5,360.388235 302.5,354.597059 302.5,354.597059 C302.5,354.597059 302,339.855882 289.5,325.114706 Z"
           id="path64"
           sketch:type="MSShapeGroup"
           fill="#A7BA4D" />
        <path
           d="M320.5,314.585294 C322,301.95 312.5,287.208824 312.5,287.208824 C312.5,287.208824 294.768071,297.738235 294.5,316.164706 C294.231929,334.591176 310.5,341.961765 310.5,341.961765 C310.5,341.961765 319,327.220588 320.5,314.585294 Z"
           id="path66"
           sketch:type="MSShapeGroup"
           fill="#A7BA4D" />
        <path
           d="M371,474.105882 C370,484.108824 357.5,490.426471 357.5,490.426471 C357.5,490.426471 354,483.582353 355,473.052941 C356,462.523529 363.5,457.785294 363.5,457.785294 C363.5,457.785294 372,464.102941 371,474.105882 Z"
           id="path68"
           sketch:type="MSShapeGroup"
           fill="#A7BA4D" />
        <path
           d="M384.5,456.732353 C397.5,455.679412 405.5,445.15 405.5,445.15 C405.5,445.15 394,431.988235 382,434.620588 C370,437.252941 363.5,450.414706 363.5,450.414706 C363.5,450.414706 371.5,457.785294 384.5,456.732353 Z"
           id="path70"
           sketch:type="MSShapeGroup"
           fill="#A7BA4D" />
        <path
           d="M422,399.347059 C438.5,400.926471 450.5,391.45 450.5,391.45 C450.5,391.45 439,376.708824 426,376.708824 C413,376.708824 403.5,389.344118 403.5,389.344118 C403.5,389.344118 405.5,397.767647 422,399.347059 Z"
           id="path72"
           sketch:type="MSShapeGroup"
           fill="#A7BA4D" />
        <path
           d="M411.5,373.55 C417,363.020588 411.5,346.173529 411.5,346.173529 C411.5,346.173529 396.5,350.385294 392.5,363.547059 C388.5,376.708824 398.193032,385.205439 397.5,387.238235 C395.606786,392.791397 406,384.079412 411.5,373.55 Z"
           id="path74"
           sketch:type="MSShapeGroup"
           fill="#A7BA4D" />
        <path
           d="M647,518.855882 C657,518.855882 671.5,507.273529 671.5,507.273529 C671.5,507.273529 661.5,495.691177 648.5,496.744118 C635.5,497.797059 631.5,511.485294 631.5,511.485294 C631.5,511.485294 637,518.855882 647,518.855882 Z"
           id="path76"
           sketch:type="MSShapeGroup"
           fill="#A7BA4D" />
        <path
           d="M638.5,482.529412 C640,467.788235 631.5,457.785294 631.5,457.785294 C631.5,457.785294 618,464.629412 615.5,482.529412 C613,500.429412 629.816042,497.680239 629.5,505.167647 C629.233327,511.485437 637,497.270588 638.5,482.529412 Z"
           id="path78"
           sketch:type="MSShapeGroup"
           fill="#A7BA4D" />
        <path
           d="M610,496.744118 C597,493.058823 588.5,497.797059 588.5,497.797059 C588.5,497.797059 592.5,515.697059 605,518.855882 C617.5,522.014706 627.5,511.485294 627.5,511.485294 C627.5,511.485294 623,500.429412 610,496.744118 Z"
           id="path80"
           sketch:type="MSShapeGroup"
           fill="#A7BA4D" />
      </g>
      <path
         d="M149.5,0.5 L439.5,0.5"
         id="path82"
         sketch:type="MSShapeGroup"
         stroke-linecap="square"
         stroke="#979797" />
      <path
         d="M213,236.232556 C193.021897,259.26108 162.368513,274 128,274 C67.8009623,274 19,228.78076 19,173 C19,117.21924 67.8009623,72 128,72 C128,16.2192403 176.800962,-29 237,-29 C297.199038,-29 346,16.2192403 346,72 C346,75.3930237 345.819435,78.7469696 345.466723,82.0540373 C381.886251,98.4045379 407,132.984706 407,173 C407,228.78076 358.199038,274 298,274 C263.631487,274 232.978103,259.26108 213,236.232556 Z"
         id="Oval-1"
         sketch:type="MSShapeGroup"
         fill="#FFFFFF" />
      <path
         d="M963.890045,-17.8859717 C947.011348,-50.6011995 912.647333,-73 873,-73 C816.666956,-73 771,-27.7807597 771,28 C771,82.1574966 814.047742,126.359226 868.109955,128.885972 C884.988652,161.601199 919.352667,184 959,184 C980.98462,184 1001.34475,177.112926 1018,165.398779 C1034.65525,177.112926 1055.01538,184 1077,184 C1133.33304,184 1179,138.78076 1179,83 C1179,27.2192403 1133.33304,-18 1077,-18 C1055.01538,-18 1034.65525,-11.1129256 1018,0.601223059 C1002.58669,-10.2394332 984.000422,-16.9460583 963.890045,-17.8859717 Z"
         id="Path-Copy"
         sketch:type="MSShapeGroup"
         fill="#FFFFFF" />
      <g
         id="g92"
         sketch:type="MSLayerGroup"
         transform="translate(773.407534, 207.138844) rotate(50.000000) translate(-773.407534, -207.138844) translate(720.407534, 174.138844)">
        <g
           transform="translate(0.734946, 0.000000)"
           sketch:type="MSShapeGroup"
           id="g94" />
      </g>
      <g
         id="Rectangle-72-+-The-page-you-were-lo"
         sketch:type="MSLayerGroup"
         transform="translate(156.000000, 675.000000)" />
    </g>
  </g>
</svg>
