<?xml version="1.0" encoding="UTF-8" standalone="no"?>
<svg
   xmlns:sketch="http://www.bohemiancoding.com/sketch/ns"
   xmlns:dc="http://purl.org/dc/elements/1.1/"
   xmlns:cc="http://creativecommons.org/ns#"
   xmlns:rdf="http://www.w3.org/1999/02/22-rdf-syntax-ns#"
   xmlns:svg="http://www.w3.org/2000/svg"
   xmlns="http://www.w3.org/2000/svg"
   xmlns:sodipodi="http://sodipodi.sourceforge.net/DTD/sodipodi-0.dtd"
   xmlns:inkscape="http://www.inkscape.org/namespaces/inkscape"
   width="1280px"
   height="850px"
   viewBox="0 0 1280 850"
   version="1.1"
   id="svg2"
   inkscape:version="0.48.5 r10040"
   sodipodi:docname="sky_bg2.svg">
  <metadata
     id="metadata111">
    <rdf:RDF>
      <cc:Work
         rdf:about="">
        <dc:format>image/svg+xml</dc:format>
        <dc:type
           rdf:resource="http://purl.org/dc/dcmitype/StillImage" />
        <dc:title>Desktop Landscape</dc:title>
      </cc:Work>
    </rdf:RDF>
  </metadata>
  <sodipodi:namedview
     pagecolor="#ffffff"
     bordercolor="#666666"
     borderopacity="1"
     objecttolerance="10"
     gridtolerance="10"
     guidetolerance="10"
     inkscape:pageopacity="0"
     inkscape:pageshadow="2"
     inkscape:window-width="1536"
     inkscape:window-height="803"
     id="namedview109"
     showgrid="false"
     inkscape:zoom="0.63197669"
     inkscape:cx="714.67463"
     inkscape:cy="656.67065"
     inkscape:window-x="-8"
     inkscape:window-y="-8"
     inkscape:window-maximized="1"
     inkscape:current-layer="svg2" />
  <!-- Generator: Sketch 3.3.3 (12081) - http://www.bohemiancoding.com/sketch -->
  <title
     id="title4">Desktop Landscape</title>
  <desc
     id="desc6">Created with Sketch.</desc>
  <defs
     id="defs8">
    <filter
       x="-50%"
       y="-50%"
       width="200%"
       height="200%"
       filterUnits="objectBoundingBox"
       id="filter-1">
      <feMorphology
         radius="4"
         in="SourceAlpha"
         operator="dilate"
         result="shadowSpreadOuter1"
         id="feMorphology11" />
      <feOffset
         dx="4"
         dy="3"
         in="shadowSpreadOuter1"
         result="shadowOffsetOuter1"
         id="feOffset13" />
      <feGaussianBlur
         stdDeviation="2.5"
         in="shadowOffsetOuter1"
         result="shadowBlurOuter1"
         id="feGaussianBlur15" />
      <feColorMatrix
         values="0 0 0 0 0   0 0 0 0 0   0 0 0 0 0  0 0 0 0.0892634737 0"
         in="shadowBlurOuter1"
         type="matrix"
         result="shadowMatrixOuter1"
         id="feColorMatrix17" />
      <feMerge
         id="feMerge19">
        <feMergeNode
           in="shadowMatrixOuter1"
           id="feMergeNode21" />
        <feMergeNode
           in="SourceGraphic"
           id="feMergeNode23" />
      </feMerge>
    </filter>
  </defs>
  <path
     style="fill:#a7ba4d;stroke:none"
     inkscape:connector-curvature="0"
     sketch:type="MSShapeGroup"
     id="Line"
     d="m 556.21387,732.13856 c 3.5,-11.05589 0,-22.63824 0,-22.63824 0,0 -16,3.15882 -19.5,17.37353 -3.5,14.21471 6,23.69118 6,23.69118 0,0 10,-7.37059 13.5,-18.42647 z" />
  <rect
     style="fill:#c0daf0;stroke:#979797"
     height="895"
     width="1280"
     y="-22"
     x="0"
     sketch:type="MSShapeGroup"
     id="Rectangle-71" />
  <path
     style="fill:#a7ba4d;stroke:none"
     inkscape:connector-curvature="0"
     sketch:type="MSShapeGroup"
     id="path30"
     d="m 569.71387,762.67385 c 14.5,-1.05294 22.5,-8.95 22.5,-8.95 0,0 -10.5,-14.90741 -23.5,-14.74118 -13,0.16623 -21.5,13.68824 -21.5,13.68824 0,0 8,11.05588 22.5,10.00294 z" />
  <path
     style="fill:#a7ba4d;stroke:none"
     inkscape:connector-curvature="0"
     sketch:type="MSShapeGroup"
     id="path32"
     d="m 615.21387,789.52385 c 4.5,-8.42353 0,-24.21765 0,-24.21765 0,0 -16,3.6853 -19.5,16.32059 -3.5,12.6353 5.5,22.63824 5.5,22.63824 0,0 9.5,-6.31765 14,-14.74118 z" />
  <path
     style="fill:#a7ba4d;stroke:none"
     inkscape:connector-curvature="0"
     sketch:type="MSShapeGroup"
     id="path34"
     d="m 626.71387,819.0062 c 8.82837,-0.37624 15.89109,-5.31429 20.5,-7.37058 2.43886,-1.08812 5,0 5,0 0,0 -8.5,-15.26765 -23,-17.9 -14.5,-2.63236 -23,14.74117 -23,14.74117 0,0 7,11.10474 20.5,10.52941 z" />
  <path
     style="fill:#a7ba4d;stroke:none"
     inkscape:connector-curvature="0"
     sketch:type="MSShapeGroup"
     id="path36"
     d="m 641.21387,884.81503 c -11.5,5.2647 -18,17.37353 -18,17.37353 0,0 16.57113,8.77852 26.5,3.68529 8.77231,-4.49994 10.92872,-22.88515 12.5,-23.69118 3.34973,-1.71831 -9.5,-2.63235 -21,2.63236 z" />
  <path
     style="fill:#a7ba4d;stroke:none"
     inkscape:connector-curvature="0"
     sketch:type="MSShapeGroup"
     id="path38"
     d="m 664.71387,899.02973 c 0.83302,3.80085 7.5,11.58236 7.5,11.58236 0,0 7,-7.89706 5.5,-16.84706 -1.5,-8.95 -11.5,-10.52941 -11.5,-10.52941 0,0 -2.66698,10.46946 -1.5,15.79411 z" />
  <path
     style="fill:#71502d;stroke:none"
     inkscape:connector-curvature="0"
     sketch:type="MSShapeGroup"
     id="path40"
     d="m -166.03613,1043.2827 c 21.94074,-7.8515 50.52042,-9.5095 68.500002,-17.9 40.79704,-19.0388 79.65623,-74.88952 134.499998,-102.13532 96.4844,-47.93242 206.5,-66.86176 206.5,-66.86176 0,0 92.80353,43.73985 145.75,51.06764 2.59222,0.35877 6.11962,10.93302 8.5,11.05589 1.89401,0.0977 -4,-8.42353 -2,-11.05589 0.9632,-1.26774 8.88373,-1.40474 15.5,-3.68529 7.12186,-2.45483 12.9072,-7.05892 12,-8.42353 -1.75,-2.63235 -14.25,11.05588 -52.25,1.57941 -38,-9.47647 -75.5,-50.0147 -75.5,-50.0147 0,0 33.6911,-10.40367 51,-9.47648 39.70671,2.127 113.57413,32.93211 165,38.43236 61.9308,6.6238 98.5,-12.10883 98.5,-12.10883 0,0 36.62308,8.27965 52.5,13.68824 6.78975,2.31298 15.5,9.47647 15.5,9.47647 0,0 -5.84705,-6.457 -12.5,-9.47647 -12.68038,-5.75504 -45.5,-16.84706 -45.5,-16.84706 0,0 5.1305,-4.63097 9.5,-5.79117 5.64869,-1.49987 17.30838,-1.53376 25,-2.63236 12.45716,-1.77926 23,-6.84412 23,-6.84412 0,0 14.89011,4.02577 22,4.21177 19.72345,0.51597 58.5,-2.10588 58.5,-2.10588 0,0 5.41576,5.34277 9,7.37059 7.58243,4.28982 30.5,0 30.5,0 0,0 -12.91051,-2.19671 -18,-3.6853 -3.91051,-1.14376 -9,-4.21176 -9,-4.21176 0,0 13.89247,-2.15528 20,-5.26471 9.0591,-4.61214 25.5,-17.9 25.5,-17.9 0,0 -33.50941,14.74857 -50,16.32059 -24.00941,2.28877 -71,-2.63236 -71,-2.63236 0,0 35.94825,-22.41271 51.5,-34.22058 8.94825,-6.79409 22,-21.5853 22,-21.5853 0,0 -68.60639,46.5501 -98,51.59412 -20.72533,3.55652 -54.47171,4.18652 -81.5,6.84412 -29.56917,2.90743 -50.06249,10.28275 -75,9.47647 -35.78971,-1.15716 -61.5,-13.68824 -61.5,-13.68824 0,0 11.58966,-4.12937 15.5,-6.84411 6.88819,-4.78211 15.5,-21.05883 31,-22.63824 6.37963,-0.65007 17.33177,12.17527 45,13.16176 27.28686,0.9729 58,-8.95 58,-8.95 0,0 -43.75404,5.8504 -65.5,1.57942 -10.42071,-2.04667 -31,-20.53236 -31,-20.53236 0,0 3.31013,-6.35025 8.5,-10.00294 3.25097,-2.28806 8.2518,-1.50016 10.5,-3.68529 2.48371,-2.41403 4.42352,-8.36796 7.5,-12.10883 5.79576,-7.04738 12.5,-12.10882 12.5,-12.10882 0,0 -11.62867,4.99346 -25,15.26765 -11.71761,9.00351 -24.64339,22.97433 -34,28.95588 -5.2829,3.37728 -17.34615,5.17404 -24.5,8.42353 -9.95306,4.52097 -14.5,10.00294 -14.5,10.00294 0,0 -8.95234,4.01711 -21.5,0 -17.72147,-5.67349 -42.46575,-20.41222 -58,-24.74412 -9.96675,-2.77933 -30,-5.79117 -30,-5.79117 0,0 1.03865,-8.63622 4.5,-10.00294 12.4075,-4.89914 43.07428,-2.24037 60,-6.84412 16.54874,-4.50121 19.5,-16.32059 19.5,-16.32059 0,0 -4.98139,4.52807 -19.5,8.95 -11.56296,3.52173 -34.70908,0.27818 -55,5.79118 -25.00927,6.79496 -46.5,22.11176 -46.5,22.11176 0,0 -17.48921,14.43848 -56.5,22.63824 -36.2245,7.6141 -68.10475,-0.78116 -94,7.37058 -43.21771,13.6048 -140.4999976,61.59706 -140.4999976,61.59706 0,0 9.7734896,-7.36225 16.9999976,-41.0647 4.45726,-20.78745 3.45862,-58.85364 8,-84.2353 4.0062,-22.39055 13.42963,-32.85151 19,-42.11764 17.54417,-29.18421 75,-30.5353 75,-30.5353 0,0 8.21976,5.97009 12,7.37059 5.21976,1.93382 15,2.63235 15,2.63235 0,0 -9.02429,-3.8987 -13.5,-6.84411 -2.19095,-1.44184 -6.5,-6.31765 -6.5,-6.31765 l 31,-8.42353 c 0,0 -16.0482,2.16784 -34,2.63235 -14.69234,0.38018 -30.60461,-1.07114 -40.5,0 -13.68061,1.48088 -32.5,8.95 -32.5,8.95 0,0 6.68448,-8.01683 12.5,-11.58235 20.51782,-12.57958 66.5,-36.85294 66.5,-36.85294 0,0 20.633,1.30189 31,0 7.79967,-0.97949 23.5,-6.84412 23.5,-6.84412 0,0 -18.36931,1.32 -27.5,1.05294 -2.86931,-0.0839 -8.5,-2.10588 -8.5,-2.10588 0,0 8.97492,-3.28794 12.5,-5.79118 3.64159,-2.58598 7.5,-10.52941 7.5,-10.52941 0,0 -36.52578,13.60406 -55,21.05882 -9.35911,3.77662 -28.5,12.6353 -28.5,12.6353 0,0 -1.97843,-3.49935 0,-9.47647 3.36037,-10.15218 12.05841,-20.76227 13,-28.42941 1.00404,-8.17568 -5.5,-23.16471 -5.5,-23.16471 0,0 1.71857,16.4587 0,23.16471 -1.92308,7.50399 -9.81747,16.53898 -13.5,25.27058 -3.87773,9.19445 -3.5,17.9 -3.5,17.9 0,0 -40.56281,24.8764 -54.5,54.22647 -7.07566,14.9005 -9.922398,56.98684 -14.499998,83.70883 -3.33428,19.46399 -9.4999996,27.37647 -9.4999996,27.37647 0,0 -0.64512,-29.94011 -14,-53.17353 -9.9996704,-17.39639 -32.3055504,-26.84946 -38.5000004,-40.01176 -4.03267,-8.56884 -3,-24.74412 -3,-24.74412 0,0 -9.62387,8.91302 -2.5,24.74412 14.17737,31.50581 36,35.8 44.0000004,74.23235 5.35588,25.7299 -5.5000004,51.06765 -23.5000004,81.60294 -18,30.53529 -21.43129,54.14917 -42.5,73.17941 -27.550032,24.88447 -64.000002,32.64118 -64.000002,32.64118 0,0 -24.39392,2.4864 -36.5,5.79117 -10.39392,2.83738 -31,12.6353 -31,12.6353 l 0,64.2294 c 0,0 17.17068,-14.2899 40.5,-22.6382 z" />
  <path
     style="fill:#a7ba4d;stroke:none"
     inkscape:connector-curvature="0"
     sketch:type="MSShapeGroup"
     id="path42"
     d="m 409.71387,941.14738 c 7,10.00294 20.5,13.68824 20.5,13.68824 0,0 4,-17.9 -3.5,-27.37648 -7.5,-9.47646 -23.5,-8.42352 -23.5,-8.42352 0,0 -0.5,12.10882 6.5,22.11176 z" />
  <path
     style="fill:#a7ba4d;stroke:none"
     inkscape:connector-curvature="0"
     sketch:type="MSShapeGroup"
     id="path44"
     d="m 374.21387,945.35914 c -2.5,17.37354 0,16.84706 0,16.84706 0,0 16.5,-1.57941 24,-12.10882 7.5,-10.52941 0,-27.90294 0,-27.90294 0,0 -21.5,5.79118 -24,23.1647 z" />
  <path
     style="fill:#a7ba4d;stroke:none"
     inkscape:connector-curvature="0"
     sketch:type="MSShapeGroup"
     id="path46"
     d="m 772.21387,860.59738 c 14,-3.68529 20,1.57941 20,1.57941 0,0 2.5,15.79412 -11,21.5853 -13.5,5.79117 -28.22468,-4.03225 -29,-3.6853 -1.48638,0.66516 6,-15.79412 20,-19.47941 z" />
  <path
     style="fill:#a7ba4d;stroke:none"
     inkscape:connector-curvature="0"
     sketch:type="MSShapeGroup"
     id="path48"
     d="m 810.71387,844.80326 c 9.5,-2.63235 20.5,5.79118 20.5,5.79118 0,0 -7.5,9.96334 -17,10.52941 -9.5,0.56607 -15,-8.40224 -15,-8.40224 0,0 2,-5.28599 11.5,-7.91835 z" />
  <path
     style="fill:#a7ba4d;stroke:none"
     inkscape:connector-curvature="0"
     sketch:type="MSShapeGroup"
     id="path50"
     d="m 759.71387,753.19738 c 4.5,-12.63529 19.5,-16.32059 19.5,-16.32059 0,0 2.5,18.42647 0,26.32353 -2.5,7.89706 -12,12.6353 -12,12.6353 0,0 -12,-10.00295 -7.5,-22.63824 z" />
  <path
     style="fill:#a7ba4d;stroke:none"
     inkscape:connector-curvature="0"
     sketch:type="MSShapeGroup"
     id="path52"
     d="m 770.71387,780.04738 c 0,0 2.5,-10.52941 13,-12.10882 10.5,-1.57942 27.5,6.84411 27.5,6.84411 0,0 -9.5,13.16177 -22.5,14.74118 -13,1.57941 -15.98986,-9.68848 -17.5,-9.47647" />
  <path
     style="fill:#a7ba4d;stroke:none"
     inkscape:connector-curvature="0"
     sketch:type="MSShapeGroup"
     id="path54"
     d="m 843.21387,821.11209 c 14,7.37059 14,25.27059 14,25.27059 0,0 -18,1.57941 -30.5,-8.42354 -12.5,-10.00294 -6.5699,-15.59642 -8.5,-16.84705 -4.9664,-3.21808 11,-7.37059 25,0 z" />
  <path
     style="fill:#a7ba4d;stroke:none"
     inkscape:connector-curvature="0"
     sketch:type="MSShapeGroup"
     id="path56"
     d="m 818.71387,802.15915 c 3.5,-5.26471 13.5,-4.21177 13.5,-4.21177 0,0 -0.2686,9.49718 -4.5,14.21471 -3.3574,3.74314 -10.5642,2.58008 -12.5,4.73823 -4.3755,4.87811 0,-9.47647 3.5,-14.74117 z" />
  <path
     style="fill:#a7ba4d;stroke:none"
     inkscape:connector-curvature="0"
     sketch:type="MSShapeGroup"
     id="path58"
     d="m -91.286128,696.86503 c 12.5,9.47647 34.5,2.10588 34.5,2.10588 0,0 0.5,-14.74118 -14.5,-29.48235 -15,-14.74118 -32.500002,-14.74118 -32.500002,-14.74118 0,0 0,32.64118 12.500002,42.11765 z" />
  <path
     style="fill:#a7ba4d;stroke:none"
     inkscape:connector-curvature="0"
     sketch:type="MSShapeGroup"
     id="path60"
     d="m -39.286128,662.11797 c 0.42573,-8.06884 -6.5,-28.42941 -6.5,-28.42941 0,0 -18,11.05588 -18,28.42941 0,17.37353 15,28.42941 15,28.42941 0,0 8.92573,-17.54531 9.5,-28.42941 z" />
  <path
     style="fill:#a7ba4d;stroke:none"
     inkscape:connector-curvature="0"
     sketch:type="MSShapeGroup"
     id="path62"
     d="m 77.71387,598.9415 c 12,-0.56995 19.5,6.31764 19.5,6.31764 0,0 -12.05746,15.89534 -22,16.84706 -10.87515,1.041 -19.80516,-12.84539 -22,-12.63529 -4.20146,0.40217 12.5,-9.95946 24.5,-10.52941 z" />
  <path
     style="fill:#a7ba4d;stroke:none"
     inkscape:connector-curvature="0"
     sketch:type="MSShapeGroup"
     id="path64"
     d="m 82.21387,561.03562 c -12.5,-14.74118 -34,-15.79412 -34,-15.79412 0,0 -5,22.63823 9.5,36.85294 14.5,14.2147 37.5,8.42353 37.5,8.42353 0,0 -0.5,-14.74118 -13,-29.48235 z" />
  <path
     style="fill:#a7ba4d;stroke:none"
     inkscape:connector-curvature="0"
     sketch:type="MSShapeGroup"
     id="path66"
     d="m 113.21387,550.5062 c 1.5,-12.63529 -8,-27.37647 -8,-27.37647 0,0 -17.73193,10.52941 -18,28.95589 -0.26807,18.42647 16,25.79706 16,25.79706 0,0 8.5,-14.74118 10,-27.37648 z" />
  <path
     style="fill:#a7ba4d;stroke:none"
     inkscape:connector-curvature="0"
     sketch:type="MSShapeGroup"
     id="path68"
     d="m 163.71387,710.02679 c -1,10.00294 -13.5,16.32059 -13.5,16.32059 0,0 -3.5,-6.84412 -2.5,-17.37353 1,-10.52941 8.5,-15.26765 8.5,-15.26765 0,0 8.5,6.31765 7.5,16.32059 z" />
  <path
     style="fill:#a7ba4d;stroke:none"
     inkscape:connector-curvature="0"
     sketch:type="MSShapeGroup"
     id="path70"
     d="m 177.21387,692.65326 c 13,-1.05294 21,-11.58235 21,-11.58235 0,0 -11.5,-13.16177 -23.5,-10.52941 -12,2.63235 -18.5,15.79412 -18.5,15.79412 0,0 8,7.37058 21,6.31764 z" />
  <path
     style="fill:#a7ba4d;stroke:none"
     inkscape:connector-curvature="0"
     sketch:type="MSShapeGroup"
     id="path72"
     d="m 214.71387,635.26797 c 16.5,1.57941 28.5,-7.89706 28.5,-7.89706 0,0 -11.5,-14.74118 -24.5,-14.74118 -13,0 -22.5,12.6353 -22.5,12.6353 0,0 2,8.42353 18.5,10.00294 z" />
  <path
     style="fill:#a7ba4d;stroke:none"
     inkscape:connector-curvature="0"
     sketch:type="MSShapeGroup"
     id="path74"
     d="m 204.21387,609.47091 c 5.5,-10.52941 0,-27.37647 0,-27.37647 0,0 -15,4.21176 -19,17.37353 -4,13.16176 5.69303,21.65838 5,23.69117 -1.89321,5.55317 8.5,-3.15882 14,-13.68823 z" />
  <path
     style="fill:#a7ba4d;stroke:none"
     inkscape:connector-curvature="0"
     sketch:type="MSShapeGroup"
     id="path76"
     d="m 439.71387,754.77679 c 10,0 24.5,-11.58235 24.5,-11.58235 0,0 -10,-11.58235 -23,-10.52941 -13,1.05294 -17,14.74117 -17,14.74117 0,0 5.5,7.37059 15.5,7.37059 z" />
  <path
     style="fill:#a7ba4d;stroke:none"
     inkscape:connector-curvature="0"
     sketch:type="MSShapeGroup"
     id="path78"
     d="m 431.21387,718.45032 c 1.5,-14.74118 -7,-24.74412 -7,-24.74412 0,0 -13.5,6.84412 -16,24.74412 -2.5,17.9 14.31604,15.15083 14,22.63824 -0.26667,6.31779 7.5,-7.89706 9,-22.63824 z" />
  <path
     style="fill:#a7ba4d;stroke:none"
     inkscape:connector-curvature="0"
     sketch:type="MSShapeGroup"
     id="path80"
     d="m 402.71387,732.66503 c -13,-3.6853 -21.5,1.05294 -21.5,1.05294 0,0 4,17.9 16.5,21.05882 12.5,3.15883 22.5,-7.37059 22.5,-7.37059 0,0 -4.5,-11.05588 -17.5,-14.74117 z" />
  <path
     style="fill:none;stroke:#979797;stroke-linecap:square"
     d="m 149.5,0.5 290,0"
     id="path82" />
  <path
     style="fill:#ffffff;stroke:none"
     d="m 244.64674,160.28039 c -19.97811,23.02852 -50.63149,37.76744 -85,37.76744 -60.199041,0 -109.000003,-45.21924 -109.000003,-100.999999 0,-55.78076 48.800962,-101 109.000003,-101 0,-55.78076 48.80096,-101.000001 109,-101.000001 60.19904,0 109,45.219241 109,101.000001 0,3.3930237 -0.18057,6.7469696 -0.53328,10.0540373 36.41953,16.3505007 61.53328,50.9306687 61.53328,90.9459627 0,55.780759 -48.80096,100.999999 -109,100.999999 -34.36852,0 -65.0219,-14.73892 -85,-37.76744 z"
     id="Oval-1" />
  <path
     style="fill:#ffffff;stroke:none"
     d="M 963.89004,-17.885972 C 947.01135,-50.601199 912.64733,-73 873,-73 c -56.33304,0 -102,45.21924 -102,101 0,54.157497 43.04774,98.35923 97.10996,100.88597 C 884.98865,161.6012 919.35267,184 959,184 c 21.98462,0 42.3447,-6.88707 59,-18.60122 16.6553,11.71415 37.0154,18.60122 59,18.60122 56.333,0 102,-45.21924 102,-101 0,-55.78076 -45.667,-101 -102,-101 -21.9846,0 -42.3447,6.887074 -59,18.60122306 C 1002.5867,-10.239433 984.00042,-16.946058 963.89004,-17.885972 z"
     id="Path-Copy" />
  <g
     style="fill:none;stroke:none"
     id="g92"
     sketch:type="MSLayerGroup"
     transform="matrix(0.64278761,0.76604444,-0.76604444,0.64278761,764.61926,145.3265)">
    <g
       transform="translate(0.734946,0)"
       sketch:type="MSShapeGroup"
       id="g94" />
  </g>
  <g
     style="fill:none;stroke:none"
     id="Rectangle-72-+-The-page-you-were-lo"
     sketch:type="MSLayerGroup"
     transform="translate(156,675)" />
  <path
     style="fill:#a7ba4d;stroke:none"
     inkscape:connector-curvature="0"
     sketch:type="MSShapeGroup"
     id="Line-1"
     d="m 1104.6172,690.20849 c -11.5054,1.45182 -20.5574,9.48069 -20.5574,9.48069 0,0 9.5691,13.20644 23.943,10.43174 14.3739,-2.7747 19.0009,-15.37014 19.0009,-15.37014 0,0 -10.8811,-5.9941 -22.3865,-4.54229 z" />
  <path
     style="fill:#a7ba4d;stroke:none"
     inkscape:connector-curvature="0"
     sketch:type="MSShapeGroup"
     id="path30-7"
     d="m 1126.6921,665.16148 c -7.0286,-12.72624 -17.5501,-16.68369 -17.5501,-16.68369 0,0 -9.1399,15.77796 -3.5446,27.51342 5.5952,11.73546 21.434,13.79127 21.434,13.79127 0,0 6.6893,-11.89476 -0.3393,-24.621 z" />
  <path
     style="fill:#a7ba4d;stroke:none"
     inkscape:connector-curvature="0"
     sketch:type="MSShapeGroup"
     id="path32-4"
     d="m 1132.0192,612.59918 c -9.5339,-0.55867 -21.9917,10.14213 -21.9917,10.14213 0,0 10.0472,12.98595 22.9869,10.8727 12.9397,-2.11326 18.254,-14.47514 18.254,-14.47514 0,0 -9.7154,-5.98101 -19.2492,-6.53969 z" />
  <path
     style="fill:#a7ba4d;stroke:none"
     inkscape:connector-curvature="0"
     sketch:type="MSShapeGroup"
     id="path34-0"
     d="m 1153.9755,589.80929 c -4.0389,-7.85935 -11.4809,-12.20485 -15.2783,-15.52896 -2.0095,-1.75903 -2.094,-4.54042 -2.094,-4.54042 0,0 -10.3046,14.11266 -6.6225,28.38226 3.6821,14.26961 23.0184,14.71244 23.0184,14.71244 0,0 7.1525,-11.00714 0.9764,-23.02532 z" />
  <path
     style="fill:#a7ba4d;stroke:none"
     inkscape:connector-curvature="0"
     sketch:type="MSShapeGroup"
     id="path36-9"
     d="m 1207.6629,549.08196 c 9.5968,8.23815 23.3148,9.06962 23.3148,9.06962 0,0 1.0318,-18.72438 -7.7514,-25.60756 -7.7601,-6.08153 -25.3585,-0.34016 -26.7485,-1.42948 -2.9632,-2.32219 1.5882,9.72928 11.1851,17.96742 z" />
  <path
     style="fill:#a7ba4d;stroke:none"
     inkscape:connector-curvature="0"
     sketch:type="MSShapeGroup"
     id="path38-4"
     d="m 1210.7294,521.78894 c 3.1026,-2.34819 7.3768,-11.66121 7.3768,-11.66121 0,0 -10.1027,-3.04936 -17.6019,2.06094 -7.4991,5.11031 -4.7455,14.85258 -4.7455,14.85258 0,0 10.6241,-1.96266 14.9706,-5.25231 z" />
  <path
     style="fill:#71502d;stroke:none"
     inkscape:connector-curvature="0"
     sketch:type="MSShapeGroup"
     id="path40-8"
     d="m 1689.6334,1215.7669 c -16.3183,-16.6359 -29.7928,-41.8942 -44.9419,-54.7073 -34.3742,-29.0738 -101.3651,-40.9714 -149.0746,-79.3638 -83.9334,-67.5422 -147.1963,-159.51799 -147.1963,-159.51799 0,0 0.8541,-102.59113 -14.6651,-153.73972 -0.7598,-2.5042 7.3652,-10.13577 6.4799,-12.3488 -0.7045,-1.76084 -5.974,7.16002 -9.202,6.44627 -1.5546,-0.34375 -4.9961,-7.47889 -9.8378,-12.53188 -5.2118,-5.43921 -11.8155,-8.76459 -12.6748,-7.36929 -1.6575,2.69155 16.0075,8.31008 23.3161,46.78583 7.3085,38.47581 -13.7988,89.50595 -13.7988,89.50595 0,0 -23.5569,-26.23735 -29.9638,-42.34356 -14.6973,-36.94775 -17.6587,-116.92639 -34.2007,-165.92873 -19.9211,-59.01228 -52.2467,-84.37509 -52.2467,-84.37509 0,0 -7.8188,-36.72424 -9.5565,-53.40694 -0.7431,-7.13426 2.1142,-18.04394 2.1142,-18.04394 0,0 -3.4148,8.01378 -3.3706,15.31969 0.084,13.92501 3.7565,48.37325 3.7565,48.37325 0,0 -6.3539,-2.71951 -9.2373,-6.2015 -3.7277,-4.50135 -8.6414,-15.07513 -12.8602,-21.59966 -6.8327,-10.56703 -15.8473,-18.01974 -15.8473,-18.01974 0,0 -2.5801,-15.2074 -5.3887,-21.74167 -7.7915,-18.12657 -26.4116,-52.24092 -26.4116,-52.24092 0,0 2.5836,-7.15541 2.924,-11.25948 0.7201,-8.68199 -12.7731,-27.69653 -12.7731,-27.69653 0,0 3.412,12.64377 4.1917,17.88886 0.599,4.03006 -0.055,9.93659 -0.055,9.93659 0,0 -7.7753,-11.71292 -13.1566,-15.95684 -7.9821,-6.29489 -26.9339,-15.65975 -26.9339,-15.65975 0,0 27.4264,24.25274 35.76,38.56922 12.1333,20.84401 27.3437,65.57629 27.3437,65.57629 0,0 -35.4073,-23.25771 -52.6428,-32.435 -9.917,-5.28041 -28.8146,-10.9381 -28.8146,-10.9381 0,0 71.003,42.80554 87.8932,67.38497 11.9092,17.33094 26.614,47.71163 40.3465,71.14259 15.0234,25.63358 30.3033,41.15448 40.0147,64.13754 13.9376,32.98462 13.3256,61.5796 13.3256,61.5796 0,0 -8.6035,-8.79506 -12.7063,-11.20903 -7.2272,-4.25235 -25.6144,-5.25604 -33.5399,-18.66988 -3.2621,-5.52105 3.7978,-20.8376 -6.8936,-46.37575 -10.544,-25.1862 -32.4172,-48.92062 -32.4172,-48.92062 0,0 23.6364,37.28216 28.865,58.81797 2.5056,10.31999 -5.6625,36.74933 -5.6625,36.74933 0,0 -7.1529,-0.34651 -12.6433,-3.52956 -3.4392,-1.99396 -4.818,-6.86507 -7.7438,-7.99151 -3.2323,-1.24452 -9.4514,-0.51257 -14.1368,-1.73955 -8.8268,-2.31169 -16.2307,-6.27997 -16.2307,-6.27997 0,0 9.4045,8.46851 24.3341,16.30811 13.0832,6.86997 31.183,12.75672 40.5332,18.74836 5.2793,3.38294 11.9629,13.58486 17.9097,18.72033 8.2736,7.14481 15.1559,8.97807 15.1559,8.97807 0,0 7.397,6.4471 9.004,19.52378 2.2696,18.4685 -0.7517,47.11081 1.8202,63.03136 1.6501,10.21459 7.3048,29.66777 7.3048,29.66777 0,0 -8.2774,2.67359 -10.968,0.10277 -9.645,-9.21533 -20.0736,-38.17677 -31.3425,-51.61872 -11.0179,-13.14256 -22.9869,-10.87265 -22.9869,-10.87265 0,0 6.198,2.62712 16.2938,13.95939 8.0405,9.02526 14.7884,31.40222 28.2924,47.51926 16.644,19.86482 39.553,32.96565 39.553,32.96565 0,0 20.4357,9.83494 44.2191,41.82599 22.0847,29.70613 27.8123,62.17188 46.0595,82.27308 30.4534,33.5477 114.7753,101.7893 114.7753,101.7893 0,0 -10.7786,-5.7919 -44.4096,1.7601 -20.7434,4.658 -54.8924,21.5067 -79.8429,28.0123 -22.0103,5.739 -35.4562,1.5627 -46.2034,0.3849 -33.849,-3.7095 -59.1379,-55.3183 -59.1379,-55.3183 0,0 1.979,-9.9644 1.6676,-13.9837 -0.4299,-5.5498 -3.8914,-14.7237 -3.8914,-14.7237 0,0 0.2389,9.8276 -0.5614,15.1254 -0.3917,2.5934 -3.0148,8.5483 -3.0148,8.5483 l -20.6318,-24.6228 c 0,0 8.6894,13.6652 16.6293,29.7724 6.4982,13.1826 11.8442,28.2401 16.961,36.7773 7.0741,11.803 21.7381,25.7645 21.7381,25.7645 0,0 -10.0794,-2.7127 -15.7527,-6.5004 -20.0159,-13.3637 -61.3151,-44.9539 -61.3151,-44.9539 0,0 -7.4586,-19.2816 -12.9825,-28.1505 -4.1559,-6.6726 -16.0566,-18.4737 -16.0566,-18.4737 0,0 8.8916,16.128 12.4729,24.5313 1.1255,2.6407 1.6474,8.6006 1.6474,8.6006 0,0 -6.7443,-6.773 -10.4937,-8.9257 -3.8734,-2.2239 -12.7025,-2.401 -12.7025,-2.401 0,0 27.6502,27.4712 42.1566,41.1253 7.349,6.9172 23.4094,20.5888 23.4094,20.5888 0,0 -2.3491,3.2621 -8.6054,3.9687 -10.6263,1.2001 -23.9038,-2.255 -31.2605,0.1009 -7.8447,2.5121 -18.7321,14.6956 -18.7321,14.6956 0,0 14.2261,-8.4534 21.0354,-9.7012 7.6196,-1.3963 19.1303,1.9887 28.6015,1.6761 9.9733,-0.3293 17.7204,-4.3181 17.7204,-4.3181 0,0 39.5772,26.4164 72.0663,26.781 16.4941,0.1851 55.9041,-14.8552 82.0869,-21.8893 19.0713,-5.1236 28.8386,-2.8383 28.8386,-2.8383 0,0 -26.9179,13.1245 -42.4229,34.9818 -11.6096,16.366 -10.8522,40.5804 -20.2105,51.7177 -6.0924,7.2506 -21.2133,13.0869 -21.2133,13.0869 0,0 12.1241,5.0066 23.5166,-8.0924 22.6726,-26.0686 17.4329,-47.6837 48.9824,-71.0435 21.1219,-15.639 48.677,-16.3922 83.9438,-12.8346 35.2668,3.5576 58.1471,-3.2158 84.2515,7.9467 34.1349,14.5963 56.4435,44.4474 56.4435,44.4474 0,0 12.4738,21.1105 20.5448,30.7198 6.9294,8.2502 24.4563,22.859 24.4563,22.859 l 58.3257,-26.8987 c 0,0 -20.1674,-9.6079 -37.5184,-27.2967 z" />
  <path
     style="fill:#a7ba4d;stroke:none"
     inkscape:connector-curvature="0"
     sketch:type="MSShapeGroup"
     id="path42-8"
     d="m 1355.7673,735.71166 c 6.152,-10.54572 3.8449,-24.34821 3.8449,-24.34821 0,0 -17.9299,3.86402 -23.3943,14.64331 -5.4645,10.77927 2.1922,24.86759 2.1922,24.86759 0,0 11.2052,-4.61702 17.3572,-15.16269 z" />
  <path
     style="fill:#a7ba4d;stroke:none"
     inkscape:connector-curvature="0"
     sketch:type="MSShapeGroup"
     id="path44-2"
     d="m 1374.459,766.1847 c 16.8236,-5.00567 15.2985,-7.05539 15.2985,-7.05539 0,0 -8.3443,-14.32192 -21.0468,-16.72293 -12.7024,-2.40095 -25.3381,11.6855 -25.3381,11.6855 0,0 14.2628,17.09848 31.0864,12.09282 z" />
  <path
     style="fill:#a7ba4d;stroke:none"
     inkscape:connector-curvature="0"
     sketch:type="MSShapeGroup"
     id="path46-4"
     d="m 1130.8096,440.26516 c -9.2096,-11.1698 -6.9416,-18.8231 -6.9416,-18.8231 0,0 13.2954,-8.88464 24.208,0.94918 10.9125,9.83383 8.1586,27.31904 8.7983,27.87777 1.2266,1.07122 -16.8551,1.16594 -26.0647,-10.00385 z" />
  <path
     style="fill:#a7ba4d;stroke:none"
     inkscape:connector-curvature="0"
     sketch:type="MSShapeGroup"
     id="path48-5"
     d="m 1100.3438,411.9184 c -6.3689,-7.52438 -3.3263,-21.04099 -3.3263,-21.04099 0,0 12.1884,2.63807 16.681,11.02779 4.4925,8.38972 -1.3481,17.14002 -1.3481,17.14002 0,0 -5.6377,0.39756 -12.0066,-7.12682 z" />
  <path
     style="fill:#a7ba4d;stroke:none"
     inkscape:connector-curvature="0"
     sketch:type="MSShapeGroup"
     id="path50-5"
     d="m 1038.5164,496.59432 c -13.3584,1.20517 -22.9869,-10.8727 -22.9869,-10.8727 0,0 15.6858,-9.98705 23.904,-11.02405 8.2181,-1.03701 16.4994,5.60544 16.4994,5.60544 0,0 -4.058,15.08614 -17.4165,16.29131 z" />
  <path
     style="fill:#a7ba4d;stroke:none"
     inkscape:connector-curvature="0"
     sketch:type="MSShapeGroup"
     id="path52-1"
     d="m 1058.2917,475.36088 c 0,0 -10.6085,2.13941 -16.4401,-6.73402 -5.8315,-8.87342 -5.3017,-27.83852 -5.3017,-27.83852 0,0 15.9305,3.11475 22.809,14.25839 6.8785,11.14363 -2.1015,18.5776 -1.2766,19.8601" />
  <path
     style="fill:#a7ba4d;stroke:none"
     inkscape:connector-curvature="0"
     sketch:type="MSShapeGroup"
     id="path54-7"
     d="m 1065.2196,392.32735 c 0.83,-15.79989 17.0847,-23.29624 17.0847,-23.29624 0,0 8.9724,15.68404 5.1238,31.22422 -3.8486,15.54017 -11.4114,12.49765 -11.7388,14.77409 -0.8424,5.85761 -11.2998,-6.90217 -10.4697,-22.70207 z" />
  <path
     style="fill:#a7ba4d;stroke:none"
     inkscape:connector-curvature="0"
     sketch:type="MSShapeGroup"
     id="path56-1"
     d="m 1058.2691,422.5127 c -6.2466,-0.97348 -9.4783,-10.49527 -9.4783,-10.49527 0,0 8.7367,-3.73342 14.7927,-1.86662 4.8051,1.48121 6.7671,8.51266 9.5376,9.36671 6.2621,1.93041 -8.6055,3.96866 -14.852,2.99518 z" />
  <path
     style="fill:#a7ba4d;stroke:none"
     inkscape:connector-curvature="0"
     sketch:type="MSShapeGroup"
     id="path58-1"
     d="m 1343.7529,1292.9643 c 3.3705,-15.3197 -12.5359,-32.2108 -12.5359,-32.2108 0,0 -13.5956,5.7194 -20.7,25.5141 -7.1043,19.7947 0.2245,35.6862 0.2245,35.6862 0,0 29.6408,-13.6698 33.0114,-28.9895 z" />
  <path
     style="fill:#a7ba4d;stroke:none"
     inkscape:connector-curvature="0"
     sketch:type="MSShapeGroup"
     id="path60-5"
     d="m 1290.4226,1260.2957 c -7.5055,2.9926 -23.0941,17.8085 -23.0941,17.8085 0,0 17.5779,11.7154 33.3545,4.4395 15.7766,-7.2758 19.5344,-25.5272 19.5344,-25.5272 0,0 -19.6706,-0.7575 -29.7948,3.2792 z" />
  <path
     style="fill:#a7ba4d;stroke:none"
     inkscape:connector-curvature="0"
     sketch:type="MSShapeGroup"
     id="path62-2"
     d="m 1184.0546,1180.5077 c -5.543,-10.6583 -2.4295,-20.3533 -2.4295,-20.3533 0,0 19.4839,4.2923 24.512,12.9224 5.4997,9.4396 -3.3705,23.3642 -2.2605,25.2694 2.1247,3.6468 -14.2789,-7.1802 -19.822,-17.8385 z" />
  <path
     style="fill:#a7ba4d;stroke:none"
     inkscape:connector-curvature="0"
     sketch:type="MSShapeGroup"
     id="path64-7"
     d="m 1147.7484,1192.296 c -8.1513,17.5245 -0.1035,37.4892 -0.1035,37.4892 0,0 22.6513,-4.9402 29.487,-24.0604 6.8357,-19.1202 -8.0554,-37.5808 -8.0554,-37.5808 0,0 -13.1768,6.6275 -21.3281,24.152 z" />
  <path
     style="fill:#a7ba4d;stroke:none"
     inkscape:connector-curvature="0"
     sketch:type="MSShapeGroup"
     id="path66-6"
     d="m 1125.2043,1168.5551 c -12.1021,3.9294 -21.5098,18.7296 -21.5098,18.7296 0,0 16.9876,11.6925 33.8326,4.2191 16.845,-7.4734 16.7252,-25.3329 16.7252,-25.3329 0,0 -16.9459,-1.5453 -29.048,2.3842 z" />
  <path
     style="fill:#a7ba4d;stroke:none"
     inkscape:connector-curvature="0"
     sketch:type="MSShapeGroup"
     id="path68-1"
     d="m 1248.9133,1055.8911 c 9.5022,-3.281 20.4741,5.4242 20.4741,5.4242 0,0 -4.7493,6.0446 -14.7297,9.5461 -9.9803,3.5016 -17.424,-1.3247 -17.424,-1.3247 0,0 2.1773,-10.3645 11.6796,-13.6456 z" />
  <path
     style="fill:#a7ba4d;stroke:none"
     inkscape:connector-curvature="0"
     sketch:type="MSShapeGroup"
     id="path70-4"
     d="m 1227.483,1050.9079 c -6.4005,-11.3641 -19.3124,-14.2192 -19.3124,-14.2192 0,0 -7.1358,15.955 0.28,25.7496 7.4159,9.7946 22.09,10.1851 22.09,10.1851 0,0 3.3428,-10.3514 -3.0576,-21.7155 z" />
  <path
     style="fill:#a7ba4d;stroke:none"
     inkscape:connector-curvature="0"
     sketch:type="MSShapeGroup"
     id="path72-2"
     d="m 1159.6677,1040.8872 c -5.4758,-15.6448 -19.1067,-22.5731 -19.1067,-22.5731 0,0 -8.5701,16.6164 -3.1258,28.4215 5.4442,11.805 20.8967,15.1403 20.8967,15.1403 0,0 6.8116,-5.3439 1.3358,-20.9887 z" />
  <path
     style="fill:#a7ba4d;stroke:none"
     inkscape:connector-curvature="0"
     sketch:type="MSShapeGroup"
     id="path74-3"
     d="m 1140.6392,1061.2257 c -11.865,-0.5849 -24.8601,11.465 -24.8601,11.465 0,0 10.1065,11.8574 23.7336,9.9777 13.6271,-1.8797 17.2834,-14.2401 19.4196,-14.4621 5.8356,-0.6064 -6.4282,-6.3958 -18.2931,-6.9806 z" />
  <path
     style="fill:#a7ba4d;stroke:none"
     inkscape:connector-curvature="0"
     sketch:type="MSShapeGroup"
     id="path76-2"
     d="m 1173.9637,786.51945 c -4.1879,-9.08082 -20.7781,-17.39744 -20.7781,-17.39744 0,0 -6.3298,13.93141 0.071,25.29552 6.4005,11.36411 20.5057,9.26394 20.5057,9.26394 0,0 4.3897,-8.08119 0.2018,-17.16202 z" />
  <path
     style="fill:#a7ba4d;stroke:none"
     inkscape:connector-curvature="0"
     sketch:type="MSShapeGroup"
     id="path78-2"
     d="m 1144.536,809.45135 c -14.0144,4.81134 -19.5382,16.71919 -19.5382,16.71919 0,0 11.8687,9.39286 29.1704,4.16671 17.3017,-5.22615 7.7628,-19.34523 14.6943,-22.19384 5.8487,-2.40374 -10.3121,-3.50341 -24.3265,1.30794 z" />
  <path
     style="fill:#a7ba4d;stroke:none"
     inkscape:connector-curvature="0"
     sketch:type="MSShapeGroup"
     id="path80-1"
     d="m 1169.3797,829.37867 c 2.0977,13.34845 9.9601,19.08282 9.9601,19.08282 0,0 14.5795,-11.12869 12.2131,-23.80261 -2.3664,-12.67387 -16.1159,-17.34508 -16.1159,-17.34508 0,0 -8.1551,8.71648 -6.0573,22.06487 z" />
</svg>
