<?xml version="1.0" encoding="UTF-8" standalone="no"?>
<svg
   xmlns:dc="http://purl.org/dc/elements/1.1/"
   xmlns:cc="http://creativecommons.org/ns#"
   xmlns:rdf="http://www.w3.org/1999/02/22-rdf-syntax-ns#"
   xmlns:svg="http://www.w3.org/2000/svg"
   xmlns="http://www.w3.org/2000/svg"
   xmlns:sodipodi="http://sodipodi.sourceforge.net/DTD/sodipodi-0.dtd"
   xmlns:inkscape="http://www.inkscape.org/namespaces/inkscape"
   width="772.36151"
   height="438.68954"
   viewBox="0 0 617.96673 350.99567"
   id="svg2"
   version="1.1"
   inkscape:version="0.48.5 r10040"
   sodipodi:docname="logo_light.svg">
  <metadata
     id="metadata9">
    <rdf:RDF>
      <cc:Work
         rdf:about="">
        <dc:format>image/svg+xml</dc:format>
        <dc:type
           rdf:resource="http://purl.org/dc/dcmitype/StillImage" />
        <dc:title></dc:title>
      </cc:Work>
    </rdf:RDF>
  </metadata>
  <defs
     id="defs7" />
  <sodipodi:namedview
     pagecolor="#000000"
     bordercolor="#666666"
     borderopacity="1"
     objecttolerance="10"
     gridtolerance="10"
     guidetolerance="10"
     inkscape:pageopacity="0"
     inkscape:pageshadow="2"
     inkscape:window-width="1536"
     inkscape:window-height="803"
     id="namedview5"
     showgrid="false"
     inkscape:zoom="0.71733136"
     inkscape:cx="39.411813"
     inkscape:cy="259.74622"
     inkscape:window-x="-8"
     inkscape:window-y="-8"
     inkscape:window-maximized="1"
     inkscape:current-layer="svg2"
     fit-margin-top="0"
     fit-margin-left="0"
     fit-margin-right="0"
     fit-margin-bottom="0" />
  <path
     style="fill:#ffb100;fill-opacity:1;stroke:none"
     d="m 562.99999,111.30566 c 13.5,-6.19 37.43,-11.539999 48.9,0.71 3.85,4.11 5.66,8.37 6.01,13.98 0.62,10.03 -3.92,21.11 -9.81,29 -36.1953,50.67658 -77.46604,51.181 -111.1,45 3.26707,-39.20521 37.13676,-75.14231 66,-88.69 z"
     id="path3014"
     inkscape:connector-curvature="0" />
  <path
     style="fill:#9ae600;fill-opacity:1;stroke:none"
     d="m 386.99999,49.995661 c 0.3,-25.17 14.91,-51.0899996 43,-49.95999962 11.55219,0.7871316 22.75545,6.56942302 31,12.96999962 38.5602,34.644869 52.11649,100.122889 44,142.989999 -2.5,12.27 -8.7,34.87 -17,44 -66.60255,-22.87538 -101.62478,-93.62488 -101,-149.999999 z"
     id="path3012"
     inkscape:connector-curvature="0" />
  <path
     style="fill:#f804f2;fill-opacity:1;stroke:none"
     d="m 609.89999,183.99566 c -0.33,4.86 -2.49,10.14 -5.43,14 -10.46,13.73 -32.23,23.92 -49.47,24 l -12,0 c -11.33,-0.14 -25.9,-5.2 -36,-10.25 -3.17,-1.58 -10.38,-4.5 -9.99,-8.79 0.34,-3.69 10.13,-15.1 13,-17.92 25.45724,-27.43474 100.68245,-37.57583 99.89,-1.04 z"
     id="path3010"
     inkscape:connector-curvature="0" />
  <path
     style="fill:#fff800;fill-opacity:1;stroke:none"
     d="m 477.54999,147.99566 c 7.31,17.91 8.94,28.98 9.58,48 0.06,1.83 0.34,3.89 -0.96,5.41 -1.37,1.6 -5.14,2.05 -7.17,2.3 -5.89,0.75 -12.07,1.35 -18,1.29 -23.36,-0.27 -53.09,-9.48 -70.91,-24.81 -26.20189,-23.41475 -35.25318,-69.34606 -13.09,-82.839999 40.13977,-16.645193 87.85778,21.326929 100.55,50.649999 z"
     id="path3008"
     inkscape:connector-curvature="0" />
  <path
     id="Selection #4"
     style="fill:#ffffff;fill-opacity:1;stroke:none"
     d="m 482.99999,240.99566 0,51 c 0.01,7.75 0.19,9.86 12,10 l 4,0 c 15.38,-0.19 20.81,-11.51 23.08,-25 2.61,-15.51 -0.01,-39.09 -18.08,-44.07 -4.06,-1.12 -7.86,-1.04 -12,-0.63 -6.51,1.27 -8.88,1.67 -9,8.7 z m -3.74,-17.26 c 1.6,1.58 2.16,5.97 2.74,8.26 3,-2.73 5.33,-4.77 9,-6.62 14.54,-7.34 33.64,-3.39 41.6,11.62 9.79,18.47 6.73,49.14 -8.69,63.82 -3.76,3.58 -9.05,6.19 -13.91,8.06 -10.38,3.61 -16.72,2.05 -27,0 l 0,42.12 -16,-1 0,-101 c -0.04,-8.95 -0.47,-16.3 -9,-21 l 0,-3 c 4.77,-1.89 16.99,-5.5 21.26,-1.26 z m -78.26,18.26 0,49 c 0.02,10.1 2.94,10.88 13,11 5.46,0.06 10.12,0.36 14.99,-2.61 7.56,-4.61 10.34,-13.18 12.01,-21.39 3.2,-15.81 0.29,-39.79 -18,-45.06 -3.93,-1.13 -7.98,-1.04 -12,-0.64 -6.92,1.35 -9.86,2.11 -10,9.7 z m -20.86,-18.09 c 3.4,-2.07 15.07,-3.2 18.12,0 1.6,1.41 2.16,5.8 2.74,8.09 15.95,-14.29 40.21,-14.76 51.02,6 11.55,22.18 4.33,59.18 -20.02,69.57 -12.99,5.54 -18.17,3.16 -31,1.43 l 0,41 -16,0 c 1.79,-7.36 1,-26.41 1,-35 l 0,-66 c -0.11,-8.68 -0.79,-16.48 -9,-21 1.02,-1.92 1.17,-2.62 3.14,-4.09 z m -187.14,31.09 c 1.98,0 5.83,0.23 7.4,-1.02 3.73,-2.97 -0.92,-12.88 -2.87,-15.97 -5.17,-8.17 -16.77,-11.16 -24.43,-4.62 -2.79,2.38 -4.25,5.31 -5.67,8.61 -2.07,4.81 -2.99,7.78 -3.43,13 z m 22.56,40 c -9.09,17.34 -43.78,23.99 -59.12,2 -13.19,-18.92 -8.56,-56.72 10.56,-70.36 4.59,-3.28 11.39,-5.22 17,-5.55 19.55,-1.14 31.56,11.9 31.99,30.91 0.05,2.33 0.36,6.38 -1.59,7.99 -3.32,2.75 -13.32,1.78 -17.4,1.15 l -33,0 c 0,14.06 1.85,27.78 16,35.03 3.85,1.96 8.68,3.17 13,2.5 12.6,-1.95 15.98,-8.21 25,-14.67 -0.18,3.87 -0.6,7.5 -2.44,11 z m 102.45,-9 c 3.41,8.05 9.6,16.25 18.99,16.9 12.08,0.85 18.31,-8.42 21.25,-18.9 5.31,-18.9 -1.05,-57.35 -27.25,-54.67 -22.1,5.5 -19.87,40.41 -12.99,56.67 z m 22.99,-64.74 c 26.99,1.37 35.28,22.01 35,45.74 -0.26,21.43 -15.25,40.85 -37,43.71 -27.15,3.58 -41.01,-18.34 -41.96,-42.71 -0.66,-16.94 8.34,-35.38 23.96,-42.87 4.97,-2.38 8.71,-2.84 14,-3.87 2.35,-0.12 3.57,-0.31 6,0 z m -319.719995,-26.53 c 1.76,1.73 2.49,5.88 3.09,8.27 l 4.65,17 14.98,48 c 2.45,7.34 4.71,16.7 9,23 l 17.22,-50 10.78,-29 4,0 16.669995,54 c 2.26,6.8 5.48,19.1 10.33,24 1.13,-7.32 6.06,-19.5 8.66,-27 l 16.11,-47 c 1,-2.92 2.15,-6.91 1.81,-10 -0.57,-5.33 -6.9,-11.52 2.44,-12.9 l 2.98,0 c 4.87,-0.2 6.3,0.06 11,0.9 -1.01,12.32 -9.58,32.85 -14.19,45 l -26.81,73 c -4.61,-0.62 -10.23,-1.36 -13.9,-4.42 -5.069995,-4.22 -6.439995,-11.57 -8.429995,-17.58 l -13.67,-40 -22,62 c -4.08,-0.55 -9.56,-1.31 -12.96,-3.7 -6.59,-4.63 -9.25,-17.75 -11.71,-25.3 l -19.67,-61 c -4.2200001,-12.2 -9.6400001,-20.68 -10.85000011,-24 -0.56,-1.56 -0.59,-2.43 -0.8099999990182,-4 C 5.4799949,192.99566 16.779995,190.31566 21.279995,194.72566 z m 240.309995,-13.08 c 3.5,-3.72 14.9,-4.93 19.02,-1.8 4.31,3.28 4.38,9.3 4.39,14.15 l 0,114 -17,0 c 0.63135,-32.1225 0,-58.88909 0,-91 -0.82922,-10.59326 1.22088,-29.66277 -8,-32 -1.48311,-0.30805 0.43,-2.12 1.59,-3.35 z m -35,0 c 3.4,-3.61 15.06,-5.07 19.02,-1.91 4.24,3.38 4.38,10.35 4.39,15.26 l 0,113 -17,0 0,-91 0,-13 c 0,-8.46 0.87,-14.7 -8,-19 0.47,-1.44 0.43,-2.12 1.59,-3.35 z"
     inkscape:connector-curvature="0" />
  <text
     xml:space="preserve"
     style="font-size:32.00401688px;font-style:normal;font-weight:normal;line-height:125%;letter-spacing:0px;word-spacing:0px;fill:#000000;fill-opacity:1;stroke:none;font-family:Sans"
     x="26.807684"
     y="325.0726"
     id="text2986"
     sodipodi:linespacing="125%"><tspan
       sodipodi:role="line"
       id="tspan2988"
       x="26.807684"
       y="325.0726"
       style="font-style:normal;font-variant:normal;font-weight:300;font-stretch:normal;font-family:Perpetua Titling MT;-inkscape-font-specification:Perpetua Titling MT Light" /></text>
</svg>
